<?xml version="1.0" standalone="no"?>
<!DOCTYPE svg PUBLIC "-//W3C//DTD SVG 20010904//EN"
 "http://www.w3.org/TR/2001/REC-SVG-20010904/DTD/svg10.dtd">
<svg version="1.0" xmlns="http://www.w3.org/2000/svg"
 width="128.000000pt" height="128.000000pt" viewBox="0 0 128.000000 128.000000"
 preserveAspectRatio="xMidYMid meet">
<metadata>
Created by potrace 1.11, written by Peter Selinger 2001-2013
</metadata>
<g transform="translate(0.000000,128.000000) scale(0.100000,-0.100000)"
fill="#000000" stroke="none">
<path d="M440 1257 c0 -21 -7 -25 -55 -36 -30 -7 -65 -21 -77 -32 -22 -18 -22
-20 -5 -33 10 -8 42 -17 72 -21 29 -3 59 -13 65 -21 7 -7 16 -11 21 -8 14 9
69 13 69 5 0 -25 -27 -41 -58 -35 -17 4 -32 13 -32 20 0 8 -4 14 -10 14 -5 0
-10 -5 -10 -10 0 -14 -57 -65 -98 -87 -24 -13 -31 -23 -30 -42 4 -31 -21 -38
-130 -40 -80 -1 -132 -21 -132 -50 0 -21 48 -66 81 -76 13 -4 35 -18 49 -31
37 -34 93 -55 132 -48 28 4 30 4 14 -6 -19 -13 -130 -6 -174 11 -21 8 -29 5
-52 -21 -15 -16 -32 -30 -38 -30 -14 0 -27 -64 -18 -87 5 -12 4 -15 -3 -8 -5
6 -11 21 -14 35 -4 21 -4 20 -6 -7 -1 -21 7 -42 23 -60 23 -26 29 -28 93 -26
50 2 62 0 45 -7 -46 -19 -91 -165 -64 -208 6 -9 14 -1 27 27 9 22 29 50 42 63
l25 23 -15 -35 c-8 -19 -25 -57 -38 -84 l-24 -48 35 -29 c19 -17 52 -35 73
-41 20 -6 37 -17 37 -23 0 -7 13 -18 30 -25 36 -15 42 -33 30 -85 -5 -22 -10
-43 -10 -47 0 -5 20 -8 44 -8 l44 0 -2 52 c-1 50 0 51 33 60 24 7 42 6 57 -3
23 -12 110 -8 146 6 12 5 17 1 20 -15 4 -29 97 -64 134 -49 35 13 27 30 -27
57 -39 19 -45 26 -42 47 4 20 9 22 27 15 16 -6 33 -2 61 16 22 13 47 24 56 24
33 0 115 31 143 53 l30 24 -53 56 -53 56 29 15 c56 31 66 42 53 65 -6 12 -49
50 -97 86 l-86 65 36 0 c27 0 37 5 42 20 3 11 13 20 20 20 35 0 123 -24 152
-42 l32 -19 -9 32 c-5 18 -14 37 -18 41 -5 5 -50 12 -99 15 -86 5 -91 5 -102
-16 -9 -16 -21 -21 -49 -21 -32 0 -43 7 -82 52 -28 33 -37 49 -25 44 86 -36
240 -47 301 -21 29 12 34 18 29 35 -9 29 13 34 96 20 66 -11 73 -11 91 7 19
20 19 20 -81 26 -113 8 -131 4 -131 -28 0 -25 -29 -39 -105 -48 -22 -3 -32 -3
-22 -1 9 3 14 10 11 16 -4 6 -3 8 3 5 6 -4 19 0 29 8 18 13 18 14 -6 9 -20 -5
-22 -3 -10 5 12 8 12 11 1 11 -10 0 -11 3 -2 14 9 11 9 15 -1 18 -7 3 -19 -2
-25 -11 -11 -14 -14 -14 -22 -1 -8 11 -6 17 7 22 12 5 8 7 -13 7 -18 1 -38 10
-48 22 -18 20 -18 21 3 14 25 -8 113 22 105 35 -3 4 3 6 12 4 20 -5 83 30 83
46 0 7 -7 7 -22 -1 -11 -6 -64 -26 -117 -43 -68 -23 -103 -30 -121 -24 -14 4
-42 10 -62 13 -40 6 -47 18 -24 41 19 18 30 18 47 -2 10 -13 25 -15 65 -11 59
6 131 38 101 45 -10 2 -26 -3 -35 -11 -31 -27 -77 -30 -121 -8 -23 12 -59 21
-85 21 -30 0 -46 5 -50 15 -4 12 4 15 39 15 34 0 48 5 57 20 16 24 63 27 114
5 41 -17 44 2 3 22 -34 18 -119 17 -119 -1 0 -8 -7 -17 -16 -20 -32 -12 -58
-5 -85 24 -16 16 -29 25 -29 20 0 -6 -9 -10 -20 -10 -11 0 -20 4 -20 9 0 13
26 32 34 24 4 -4 4 -1 1 8 -4 11 8 19 49 32 55 18 82 39 72 55 -7 12 -85 32
-121 32 -18 0 -29 6 -32 20 -4 16 -14 20 -49 20 -39 0 -44 -2 -44 -23z m160
-207 c0 -5 -9 -6 -19 -3 -12 3 -17 11 -14 19 4 11 9 12 19 3 8 -6 14 -15 14
-19z m-240 -80 c0 -5 -10 -10 -22 -10 -19 0 -20 2 -8 10 19 13 30 13 30 0z
m230 -16 c0 -8 -11 -9 -34 -4 -19 4 -37 6 -39 3 -3 -2 -8 0 -11 5 -3 5 13 9
39 8 26 0 45 -6 45 -12z m-280 -54 c19 -4 31 -8 25 -9 -5 -1 -4 -5 4 -10 11
-7 9 -10 -8 -16 -11 -3 -21 -11 -21 -16 0 -6 8 -5 20 1 18 10 22 7 31 -20 9
-25 14 -28 25 -19 20 16 17 26 -8 32 -26 7 -18 18 25 33 24 8 38 7 61 -4 27
-14 28 -16 10 -23 -30 -12 -56 -11 -48 3 4 7 3 8 -4 4 -7 -4 -12 -16 -12 -27
0 -16 4 -19 23 -14 20 6 20 6 5 -6 -13 -10 -15 -18 -8 -29 8 -12 10 -12 10 5
0 16 2 17 10 5 6 -9 5 -17 -3 -22 -14 -8 -37 9 -37 28 0 18 -5 18 -34 -1 -13
-9 -28 -15 -32 -14 -28 5 -44 -3 -44 -21 0 -27 -53 -27 -99 1 -40 24 -37 32 7
20 19 -6 32 -6 32 0 0 5 -12 11 -27 14 -75 16 -113 29 -104 35 6 3 -5 12 -24
19 -40 14 -46 38 -12 50 31 11 127 13 141 3 13 -11 66 -25 66 -18 0 3 -12 13
-27 21 -27 16 -27 16 -3 10 14 -4 41 -10 60 -15z m70 -1 c0 -5 -7 -9 -15 -9
-8 0 -15 7 -15 15 0 9 6 12 15 9 8 -4 15 -10 15 -15z m377 -5 c-3 -3 -12 -4
-19 -1 -8 3 -5 6 6 6 11 1 17 -2 13 -5z m46 -51 c-7 -2 -19 -2 -25 0 -7 3 -2
5 12 5 14 0 19 -2 13 -5z m-313 -35 c0 18 20 4 20 -14 0 -8 -4 -13 -9 -10 -5
4 -11 0 -14 -6 -6 -18 -14 -8 -22 27 -7 29 -7 29 8 10 10 -12 16 -15 17 -7z
m325 -18 c3 -6 -1 -7 -9 -4 -18 7 -21 14 -7 14 6 0 13 -4 16 -10z m58 -37 c-7
-2 -21 -2 -30 0 -10 3 -4 5 12 5 17 0 24 -2 18 -5z m-586 -67 c2 -1 -7 -21
-19 -44 -19 -35 -28 -42 -53 -41 -26 0 -27 2 -10 9 19 8 19 9 -3 9 -13 1 -38
-9 -54 -21 -28 -20 -33 -20 -57 -7 -31 17 -38 43 -21 75 10 18 17 21 31 14 23
-13 22 -13 47 9 19 16 29 17 79 9 31 -5 59 -10 60 -12z m-240 -68 c-3 -8 -6
-5 -6 6 -1 11 2 17 5 13 3 -3 4 -12 1 -19z m163 -36 c0 -5 -14 -9 -30 -10 -17
0 -28 4 -25 9 8 11 55 12 55 1z m170 -532 c0 -5 -5 -12 -10 -15 -14 -8 -43 2
-36 13 6 11 46 13 46 2z"/>
<path d="M208 837 c-3 -17 1 -22 19 -23 13 -1 23 2 23 7 0 5 -7 9 -16 9 -8 0
-13 4 -9 9 3 5 1 12 -4 15 -5 3 -11 -4 -13 -17z"/>
</g>
</svg>
